<svg width="70" height="69" viewBox="0 0 70 69" fill="none" xmlns="http://www.w3.org/2000/svg">
<circle cx="21.5" cy="27.5" r="10.5" fill="black"/>
<path d="M9.82507 15.9393L9.49193 15.7547L9.22543 16.0268C8.52052 16.7467 7.8922 17.5336 7.34822 18.3735L7.05709 18.8229L7.52548 19.0826L22.9103 27.6105L23.1056 27.7188L23.3166 27.6456C23.3341 27.6395 23.352 27.6338 23.3701 27.6286C23.901 27.4764 24.4548 27.7834 24.607 28.3142C24.7592 28.8451 24.4523 29.3989 23.9214 29.5511C23.3905 29.7034 22.8367 29.3964 22.6845 28.8655C22.6793 28.8474 22.6746 28.8292 22.6705 28.8111L22.6208 28.5934L22.4254 28.4851L7.04066 19.9572L6.57228 19.6976L6.34536 20.1827C5.92138 21.089 5.58701 22.0388 5.35009 23.018L5.26052 23.3883L5.59367 23.5729L11.8289 27.0292L12.9413 30.9084L12.9984 31.1075L13.1795 31.2079L14.7063 32.0542L14.9214 32.1734L15.1471 32.0758C15.1864 32.0588 15.2274 32.0441 15.2701 32.0319C15.801 31.8796 16.3548 32.1866 16.507 32.7175C16.6592 33.2484 16.3523 33.8021 15.8214 33.9544C15.2983 34.1044 14.7528 33.8084 14.5914 33.2919L14.5317 33.1008L14.3566 33.0037L12.1513 31.7813L11.0389 27.9021L10.9819 27.703L10.8007 27.6026L5.73216 24.793L5.06089 24.421L4.99178 25.1853C4.82955 26.9797 4.99015 28.8333 5.51611 30.6676C7.79957 38.6309 16.1062 43.2354 24.0696 40.9519C25.7418 40.4724 27.2668 39.7269 28.6112 38.7741L32.8453 41.1211L33.2826 41.3635L33.525 40.9262L34.0098 40.0515L35.5922 40.9287L35.8447 41.0686L36.0921 40.92L38.7636 39.3148L40.5333 40.2957L39.8573 41.5152L40.7577 40.9743L40.8023 43.5309L40.8073 43.8195L41.0598 43.9594L41.7767 44.3568L42.0292 44.4968L42.2766 44.3481L44.4684 43.0311L44.513 45.5877L44.518 45.8764L44.7705 46.0163L46.7243 47.0993L46.9768 47.2393L47.2242 47.0906L49.416 45.7736L49.4606 48.3302L49.4656 48.6189L49.7181 48.7588L51.6719 49.8418L51.9244 49.9818L52.1718 49.8331L54.8433 48.2279L56.613 49.2088L55.937 50.4283L56.8373 49.8874L56.882 52.444L56.887 52.7326L57.1395 52.8726L60.6441 54.8152L60.2545 55.5203L61.4521 55.1381L67.4056 53.2377L67.8557 53.094L67.7378 52.6365L66.2471 46.8562L66.4035 46.5741L66.1361 46.4259L65.8632 45.3677L65.4796 46.062L38.8579 31.3053L39.3427 30.4307L39.5851 29.9934L39.1478 29.751L34.9137 27.404C35.0093 25.7591 34.8335 24.0707 34.354 22.3985C32.0705 14.4351 23.7638 9.83063 15.8005 12.1141C13.9663 12.64 12.3093 13.4861 10.8735 14.5745L10.2619 15.0381L10.9332 15.4102L15.2477 17.8018L15.3374 17.8515L15.4395 17.8619L22.9142 18.6214L24.9402 19.7444L25.1154 19.8415L25.3091 19.7908C25.8326 19.6539 26.3727 19.9597 26.5227 20.4828C26.6749 21.0137 26.3679 21.5675 25.837 21.7197C25.3061 21.872 24.7524 21.565 24.6001 21.0341C24.5879 20.9914 24.5787 20.9488 24.5722 20.9065L24.5354 20.6633L24.3203 20.5441L22.6987 19.6452L22.6089 19.5955L22.5068 19.5851L15.0322 18.8257L9.82507 15.9393ZM54.0379 42.4885C53.9172 42.4216 53.8735 42.2694 53.9405 42.1486C54.0074 42.0279 54.1596 41.9842 54.2803 42.0512L63.322 47.063C63.4427 47.13 63.4864 47.2821 63.4194 47.4029C63.3525 47.5237 63.2003 47.5673 63.0796 47.5004L54.0379 42.4885ZM39.1951 34.261C39.0744 34.1941 39.0308 34.0419 39.0977 33.9211C39.1646 33.8004 39.3168 33.7568 39.4376 33.8237L51.3305 40.4161C51.4513 40.483 51.4949 40.6352 51.428 40.7559C51.361 40.8767 51.2089 40.9203 51.0881 40.8534L39.1951 34.261Z" fill="black" stroke="white"/>
</svg>
