<svg width="93" height="97" viewBox="0 0 93 97" fill="none" xmlns="http://www.w3.org/2000/svg">
<path d="M25.9528 30.1643L25.7681 29.8311L25.3979 29.9207C24.4187 30.1576 23.4688 30.492 22.5624 30.916L22.0773 31.1429L22.337 31.6113L30.8649 46.9961L30.9732 47.1914L31.1909 47.2411C31.209 47.2452 31.2271 47.2499 31.2453 47.2551C31.7761 47.4073 32.0831 47.9611 31.9309 48.492C31.7786 49.0229 31.2249 49.3299 30.694 49.1776C30.1631 49.0254 29.8561 48.4716 30.0084 47.9407C30.0136 47.9226 30.0192 47.9047 30.0253 47.8872L30.0985 47.6762L29.9903 47.4808L21.4623 32.0961L21.2027 31.6277L20.7532 31.9188C19.9134 32.4628 19.1265 33.0911 18.4067 33.796L18.1345 34.0625L18.3192 34.3956L21.7755 40.6309L20.6631 44.5101L20.606 44.7092L20.7064 44.8903L21.5527 46.4171L21.672 46.6322L21.9151 46.669C21.9574 46.6754 22 46.6847 22.0427 46.6969C22.5736 46.8491 22.8806 47.4029 22.7283 47.9338C22.5761 48.4647 22.0223 48.7717 21.4914 48.6194C20.9683 48.4694 20.6625 47.9294 20.7994 47.4059L20.8501 47.2121L20.753 47.037L19.5306 44.8317L20.6429 40.9525L20.7 40.7534L20.5996 40.5723L17.7901 35.5037L17.418 34.8325L16.9543 35.4441C15.8658 36.8798 15.0198 38.5369 14.4938 40.3711C12.2104 48.3345 16.8148 56.6411 24.7782 58.9246C26.4504 59.4041 28.1388 59.5799 29.7838 59.4843L32.1307 63.7184L32.3732 64.1557L32.8105 63.9133L33.6851 63.4285L34.5622 65.0109L34.7022 65.2634L34.9908 65.2684L38.107 65.3228L39.0879 67.0925L37.8684 67.7685L38.9186 67.7868L37.6017 69.9786L37.453 70.2261L37.593 70.4785L37.9903 71.1954L38.1303 71.4479L38.4189 71.4529L40.9755 71.4976L39.6586 73.6893L39.5099 73.9368L39.6498 74.1892L40.7328 76.143L40.8728 76.3955L41.1614 76.4005L43.718 76.4452L42.4011 78.6369L42.2524 78.8844L42.3923 79.1368L43.4753 81.0906L43.6153 81.3431L43.9039 81.3481L47.0201 81.4025L48.001 83.1722L46.7815 83.8482L47.8318 83.8665L46.5148 86.0583L46.3661 86.3057L46.5061 86.5582L48.4487 90.0628L47.7446 90.4544L48.9628 90.7648L55.0188 92.3081L55.4766 92.4248L55.619 91.9743L57.4179 86.2824L57.7 86.126L57.5519 85.8587L57.8812 84.8166L57.188 85.2022L42.4313 58.5804L43.3059 58.0956L43.7432 57.8532L43.5008 57.4159L41.1538 53.1818C42.1066 51.8375 42.8522 50.3125 43.3317 48.6402C45.6151 40.6769 41.0107 32.3702 33.0473 30.0867C31.2131 29.5608 29.3596 29.4002 27.5652 29.5624L26.8008 29.6315L27.1729 30.3028L29.5645 34.6173L29.6142 34.707L29.6953 34.7699L35.6318 39.3749L36.7548 41.4009L36.8519 41.5761L37.043 41.6358C37.5595 41.7971 37.8555 42.3426 37.7055 42.8657C37.5532 43.3966 36.9995 43.7036 36.4686 43.5514C35.9377 43.3991 35.6307 42.8454 35.7829 42.3145C35.7952 42.2718 35.8099 42.2307 35.8269 42.1915L35.9245 41.9657L35.8053 41.7506L34.9064 40.129L34.8567 40.0393L34.7756 39.9764L28.8391 35.3713L25.9528 30.1643ZM49.3785 76.1085C49.3116 75.9877 49.3552 75.8356 49.476 75.7686C49.5967 75.7017 49.7489 75.7453 49.8158 75.8661L54.8277 84.9077C54.8946 85.0284 54.851 85.1806 54.7302 85.2475C54.6095 85.3145 54.4573 85.2709 54.3904 85.1501L49.3785 76.1085ZM41.151 61.2657C41.0841 61.1449 41.1277 60.9928 41.2485 60.9258C41.3692 60.8589 41.5214 60.9025 41.5883 61.0233L48.1807 72.9162C48.2477 73.037 48.204 73.1892 48.0833 73.2561C47.9625 73.323 47.8103 73.2794 47.7434 73.1586L41.151 61.2657Z" fill="black" stroke="white"/>
<path d="M23.626 27.8423L23.3567 27.5729L23.0255 27.7611C22.1495 28.2587 21.3286 28.842 20.5742 29.4994L20.1704 29.8512L20.5491 30.2299L32.9873 42.6681L33.1452 42.826L33.3682 42.8138C33.3867 42.8128 33.4055 42.8123 33.4243 42.8123C33.9766 42.8123 34.4243 43.26 34.4243 43.8123C34.4243 44.3645 33.9766 44.8123 33.4243 44.8123C32.872 44.8123 32.4243 44.3645 32.4243 43.8123C32.4243 43.7934 32.4248 43.7746 32.4259 43.7561L32.4381 43.5331L32.2802 43.3752L19.842 30.937L19.4633 30.5583L19.1115 30.9621C18.4541 31.7165 17.8709 32.5373 17.3732 33.4133L17.1851 33.7445L17.4544 34.0138L22.4955 39.0549L22.4955 43.0904L22.4955 43.2975L22.6419 43.444L23.8763 44.6783L24.0502 44.8522L24.2941 44.8206C24.3365 44.8151 24.38 44.8123 24.4244 44.8123C24.9767 44.8123 25.4244 45.26 25.4244 45.8123C25.4244 46.3645 24.9767 46.8123 24.4244 46.8123C23.8802 46.8123 23.4374 46.3774 23.4247 45.8364L23.42 45.6362L23.2784 45.4946L21.4955 43.7117L21.4955 39.6762L21.4955 39.4691L21.349 39.3226L17.2512 35.2248L16.7085 34.6821L16.4314 35.3979C15.7809 37.078 15.4243 38.9041 15.4243 40.8123C15.4243 49.0965 22.14 55.8123 30.4243 55.8123C32.164 55.8123 33.8354 55.5159 35.3903 54.9706L38.8134 58.3937L39.167 58.7473L39.5205 58.3937L40.2276 57.6866L41.507 58.966L41.7111 59.1701L41.9899 59.0954L45.0004 58.2887L46.4311 59.7195L45.4452 60.7054L46.4598 60.4336L45.798 62.9034L45.7233 63.1823L45.9274 63.3864L46.507 63.966L46.7111 64.1701L46.9899 64.0954L49.4598 63.4336L48.798 65.9034L48.7233 66.1823L48.9274 66.3864L50.507 67.966L50.7111 68.1701L50.9899 68.0954L53.4598 67.4336L52.798 69.9034L52.7233 70.1823L52.9274 70.3864L54.507 71.966L54.7111 72.1701L54.9899 72.0954L58.0004 71.2887L59.4311 72.7195L58.4452 73.7054L59.4598 73.4336L58.798 75.9034L58.7233 76.1823L58.9274 76.3864L61.7607 79.2197L61.1919 79.7902L62.4485 79.7528L68.6952 79.5671L69.1674 79.5531L69.1801 79.0808L69.3405 73.1135L69.5686 72.8854L69.3524 72.6693L69.3818 71.5768L68.8217 72.1385L47.2987 50.6156L48.0058 49.9084L48.3593 49.5549L48.0058 49.2013L44.5826 45.7782C45.128 44.2233 45.4243 42.5519 45.4243 40.8123C45.4243 32.528 38.7086 25.8123 30.4243 25.8123C28.5162 25.8123 26.6902 26.1688 25.0101 26.8193L24.2943 27.0964L24.8371 27.6391L28.3252 31.1273L28.3978 31.1998L28.4931 31.2379L35.4688 34.0283L37.1068 35.6662L37.2484 35.8078L37.4486 35.8125C37.9896 35.8253 38.4244 36.2681 38.4244 36.8123C38.4244 37.3645 37.9767 37.8123 37.4244 37.8123C36.8721 37.8123 36.4244 37.3645 36.4244 36.8123C36.4244 36.7678 36.4273 36.7243 36.4328 36.6819L36.4644 36.438L36.2905 36.2641L34.9794 34.9531L34.9069 34.8805L34.8116 34.8424L27.8358 32.0521L23.626 27.8423ZM58.8082 65.5497C58.7106 65.4521 58.7106 65.2938 58.8082 65.1961C58.9058 65.0985 59.0641 65.0985 59.1618 65.1961L66.4717 72.506C66.5693 72.6037 66.5693 72.762 66.4717 72.8596C66.374 72.9572 66.2157 72.9572 66.1181 72.8596L58.8082 65.5497ZM46.8082 53.5497C46.7106 53.4521 46.7106 53.2938 46.8082 53.1961C46.9058 53.0985 47.0641 53.0985 47.1618 53.1961L56.7769 62.8113C56.8745 62.9089 56.8745 63.0672 56.7769 63.1648C56.6793 63.2625 56.521 63.2625 56.4233 63.1648L46.8082 53.5497Z" fill="black" stroke="white"/>
<path d="M22.3856 26.7889L22.0525 26.6042L21.786 26.8763C21.0811 27.5962 20.4527 28.3831 19.9088 29.223L19.6176 29.6725L20.086 29.9321L35.4708 38.46L35.6661 38.5683L35.8771 38.4951C35.8947 38.489 35.9125 38.4833 35.9306 38.4781C36.4615 38.3259 37.0153 38.6329 37.1675 39.1638C37.3198 39.6947 37.0128 40.2484 36.4819 40.4007C35.951 40.5529 35.3972 40.2459 35.245 39.715C35.2398 39.6969 35.2352 39.6787 35.231 39.6606L35.1813 39.4429L34.986 39.3346L19.6012 30.8067L19.1328 30.5471L18.9059 31.0322C18.4819 31.9385 18.1476 32.8883 17.9106 33.8676L17.8211 34.2378L18.1542 34.4224L24.3895 37.8787L25.5018 41.7579L25.5589 41.957L25.7401 42.0574L27.2668 42.9037L27.4819 43.0229L27.7077 42.9253C27.747 42.9084 27.788 42.8936 27.8307 42.8814C28.3615 42.7291 28.9153 43.0361 29.0676 43.567C29.2198 44.0979 28.9128 44.6517 28.3819 44.8039C27.8588 44.9539 27.3133 44.658 27.152 44.1414L27.0923 43.9503L26.9171 43.8532L24.7118 42.6308L23.5995 38.7516L23.5424 38.5525L23.3613 38.4521L18.2927 35.6426L17.6214 35.2705L17.5523 36.0349C17.3901 37.8292 17.5507 39.6829 18.0767 41.5171C20.3601 49.4804 28.6668 54.0849 36.6301 51.8015C38.3024 51.3219 39.8274 50.5764 41.1717 49.6236L45.4058 51.9706L45.8431 52.213L46.0855 51.7757L46.5703 50.9011L48.1527 51.7782L48.4052 51.9182L48.6527 51.7695L51.3242 50.1643L53.0938 51.1452L52.4178 52.3647L53.3182 51.8238L53.3628 54.3804L53.3679 54.669L53.6204 54.809L54.3372 55.2063L54.5897 55.3463L54.8372 55.1976L57.0289 53.8807L57.0735 56.4372L57.0786 56.7259L57.3311 56.8658L59.2848 57.9488L59.5373 58.0888L59.7847 57.9401L61.9765 56.6232L62.0211 59.1797L62.0262 59.4684L62.2786 59.6083L64.2324 60.6913L64.4849 60.8313L64.7323 60.6826L67.4038 59.0774L69.1735 60.0583L68.4975 61.2779L69.3979 60.7369L69.4425 63.2935L69.4476 63.5821L69.7 63.7221L73.2046 65.6647L72.815 66.3699L74.0126 65.9876L79.9662 64.0872L80.4163 63.9435L80.2983 63.486L78.8076 57.7057L78.964 57.4236L78.6967 57.2754L78.4237 56.2172L78.0402 56.9116L51.4184 42.1549L51.9032 41.2802L52.1456 40.8429L51.7083 40.6005L47.4742 38.2535C47.5699 36.6086 47.394 34.9202 46.9145 33.248C44.6311 25.2846 36.3244 20.6802 28.361 22.9636C26.5268 23.4896 24.8698 24.3356 23.4341 25.424L22.8225 25.8877L23.4938 26.2598L27.8082 28.6513L27.898 28.7011L28.0001 28.7114L35.4748 29.4709L37.5008 30.5939L37.6759 30.691L37.8696 30.6403C38.3932 30.5035 38.9332 30.8092 39.0832 31.3324C39.2354 31.8633 38.9285 32.417 38.3976 32.5693C37.8667 32.7215 37.3129 32.4145 37.1607 31.8836C37.1484 31.8409 37.1392 31.7983 37.1328 31.756L37.0959 31.5129L36.8808 31.3936L35.2592 30.4948L35.1695 30.445L35.0674 30.4346L27.5927 29.6752L22.3856 26.7889ZM66.5985 53.338C66.4777 53.2711 66.4341 53.1189 66.501 52.9982C66.568 52.8774 66.7201 52.8338 66.8409 52.9007L75.8825 57.9126C76.0033 57.9795 76.0469 58.1317 75.98 58.2524C75.913 58.3732 75.7609 58.4168 75.6401 58.3499L66.5985 53.338ZM51.7557 45.1105C51.6349 45.0436 51.5913 44.8914 51.6582 44.7707C51.7252 44.6499 51.8773 44.6063 51.9981 44.6732L63.8911 51.2656C64.0118 51.3325 64.0554 51.4847 63.9885 51.6054C63.9216 51.7262 63.7694 51.7698 63.6487 51.7029L51.7557 45.1105Z" fill="black" stroke="white"/>
</svg>
